<svg xmlns="http://www.w3.org/2000/svg" width="98.03" height="97.97" viewBox="0 0 98.03 97.97">
  <metadata><?xpacket begin="﻿" id="W5M0MpCehiHzreSzNTczkc9d"?>
<x:xmpmeta xmlns:x="adobe:ns:meta/" x:xmptk="Adobe XMP Core 5.6-c142 79.160924, 2017/07/13-01:06:39        ">
   <rdf:RDF xmlns:rdf="http://www.w3.org/1999/02/22-rdf-syntax-ns#">
      <rdf:Description rdf:about=""/>
   </rdf:RDF>
</x:xmpmeta>
                                                                                                    
                                                                                                    
                                                                                                    
                                                                                                    
                                                                                                    
                                                                                                    
                                                                                                    
                                                                                                    
                                                                                                    
                                                                                                    
                                                                                                    
                                                                                                    
                                                                                                    
                                                                                                    
                                                                                                    
                                                                                                    
                                                                                                    
                                                                                                    
                                                                                                    
                                                                                                    
                           
<?xpacket end="w"?></metadata>
<defs>
    <style>
      .cls-1 {
        fill: #35d5ff;
        fill-rule: evenodd;
      }
    </style>
  </defs>
  <path id="pause" class="cls-1" d="M2365.99,2534a48.99,48.99,0,1,1-49.01,48.99A49.009,49.009,0,0,1,2365.99,2534Zm-18.97,65.78a4.236,4.236,0,0,0,4.28,4.2h4.27a4.236,4.236,0,0,0,4.28-4.2v-33.59a4.236,4.236,0,0,0-4.28-4.2h-4.27a4.236,4.236,0,0,0-4.28,4.2v33.59Zm18.97-65.78a48.99,48.99,0,1,1-49.01,48.99A49.009,49.009,0,0,1,2365.99,2534Zm6.16,65.78a4.236,4.236,0,0,0,4.28,4.2h4.27a4.236,4.236,0,0,0,4.28-4.2v-33.59a4.236,4.236,0,0,0-4.28-4.2h-4.27a4.236,4.236,0,0,0-4.28,4.2v33.59Z" transform="translate(-2316.97 -2534)"/>
</svg>
