<svg xmlns="http://www.w3.org/2000/svg" width="65.12" height="65.16" viewBox="0 0 65.12 65.16">
  <metadata><?xpacket begin="﻿" id="W5M0MpCehiHzreSzNTczkc9d"?>
<x:xmpmeta xmlns:x="adobe:ns:meta/" x:xmptk="Adobe XMP Core 5.6-c142 79.160924, 2017/07/13-01:06:39        ">
   <rdf:RDF xmlns:rdf="http://www.w3.org/1999/02/22-rdf-syntax-ns#">
      <rdf:Description rdf:about=""/>
   </rdf:RDF>
</x:xmpmeta>
                                                                                                    
                                                                                                    
                                                                                                    
                                                                                                    
                                                                                                    
                                                                                                    
                                                                                                    
                                                                                                    
                                                                                                    
                                                                                                    
                                                                                                    
                                                                                                    
                                                                                                    
                                                                                                    
                                                                                                    
                                                                                                    
                                                                                                    
                                                                                                    
                                                                                                    
                                                                                                    
                           
<?xpacket end="w"?></metadata>
<defs>
    <style>
      .cls-1 {
        fill: #a7a7a7;
        fill-rule: evenodd;
      }
    </style>
  </defs>
  <path id="prev" class="cls-1" d="M2182.68,2551.22a32.57,32.57,0,1,1-32.57,32.57A32.567,32.567,0,0,1,2182.68,2551.22Zm-3.17,34.26,12.22,8.15a2.079,2.079,0,0,0,1.13.34,2.027,2.027,0,0,0,2.03-2.04v-16.28a2.032,2.032,0,0,0-3.16-1.7l-12.22,8.15A2.037,2.037,0,0,0,2179.51,2585.48Zm-11.08,6.45a2.036,2.036,0,0,0,2.04,2.04h2.03a2.036,2.036,0,0,0,2.04-2.04v-16.28a2.036,2.036,0,0,0-2.04-2.04h-2.03a2.036,2.036,0,0,0-2.04,2.04v16.28Z" transform="translate(-2150.13 -2551.22)"/>
</svg>
