<svg xmlns="http://www.w3.org/2000/svg" width="65.15" height="65.16" viewBox="0 0 65.15 65.16">
  <metadata><?xpacket begin="﻿" id="W5M0MpCehiHzreSzNTczkc9d"?>
<x:xmpmeta xmlns:x="adobe:ns:meta/" x:xmptk="Adobe XMP Core 5.6-c142 79.160924, 2017/07/13-01:06:39        ">
   <rdf:RDF xmlns:rdf="http://www.w3.org/1999/02/22-rdf-syntax-ns#">
      <rdf:Description rdf:about=""/>
   </rdf:RDF>
</x:xmpmeta>
                                                                                                    
                                                                                                    
                                                                                                    
                                                                                                    
                                                                                                    
                                                                                                    
                                                                                                    
                                                                                                    
                                                                                                    
                                                                                                    
                                                                                                    
                                                                                                    
                                                                                                    
                                                                                                    
                                                                                                    
                                                                                                    
                                                                                                    
                                                                                                    
                                                                                                    
                                                                                                    
                           
<?xpacket end="w"?></metadata>
<defs>
    <style>
      .cls-1 {
        fill: #a7a7a7;
        fill-rule: evenodd;
      }
    </style>
  </defs>
  <path id="repeat" class="cls-1" d="M1999.48,2551.22a32.57,32.57,0,1,0,32.57,32.57A32.606,32.606,0,0,0,1999.48,2551.22Zm-6.79,27.92a9.369,9.369,0,0,0,13.25,13.25,2.963,2.963,0,1,1,4.19,4.19,15.295,15.295,0,1,1-10.95-26.11c0.48,0,.96.02,1.43,0.06l0.76-2.26a2.964,2.964,0,0,1,5.46-.36l3.86,7.82a2.974,2.974,0,0,1-1.34,3.97l-7.83,3.86a2.96,2.96,0,0,1-4.11-3.61l1.19-3.51A9.276,9.276,0,0,0,1992.69,2579.14Z" transform="translate(-1966.91 -2551.22)"/>
</svg>
