<svg xmlns="http://www.w3.org/2000/svg" width="64.12" height="64.12" viewBox="0 0 64.12 64.12">
  <metadata><?xpacket begin="﻿" id="W5M0MpCehiHzreSzNTczkc9d"?>
<x:xmpmeta xmlns:x="adobe:ns:meta/" x:xmptk="Adobe XMP Core 5.6-c142 79.160924, 2017/07/13-01:06:39        ">
   <rdf:RDF xmlns:rdf="http://www.w3.org/1999/02/22-rdf-syntax-ns#">
      <rdf:Description rdf:about=""/>
   </rdf:RDF>
</x:xmpmeta>
                                                                                                    
                                                                                                    
                                                                                                    
                                                                                                    
                                                                                                    
                                                                                                    
                                                                                                    
                                                                                                    
                                                                                                    
                                                                                                    
                                                                                                    
                                                                                                    
                                                                                                    
                                                                                                    
                                                                                                    
                                                                                                    
                                                                                                    
                                                                                                    
                                                                                                    
                                                                                                    
                           
<?xpacket end="w"?></metadata>
<defs>
    <style>
      .cls-1 {
        fill: #43c0e0;
        fill-rule: evenodd;
      }
    </style>
  </defs>
  <path id="setting" class="cls-1" d="M2915.97,2577.64a5.583,5.583,0,1,1-4,1.63A5.437,5.437,0,0,1,2915.97,2577.64Zm19.18,3.53a0.939,0.939,0,0,0-.29-0.68,0.955,0.955,0,0,0-.68-0.29l-4.87-.51a9.366,9.366,0,0,0-.54-1.7c-0.24-.53-0.51-1.08-0.81-1.63l3.08-3.79a0.884,0.884,0,0,0-.06-1.34l-2.95-2.95a0.97,0.97,0,0,0-.71-0.32,0.874,0.874,0,0,0-.64.25l-3.78,3.08c-0.56-.3-1.1-0.57-1.64-0.8a8.454,8.454,0,0,0-1.7-.55l-0.51-4.87a0.88,0.88,0,0,0-.29-0.67,0.917,0.917,0,0,0-.67-0.29h-4.23a0.955,0.955,0,0,0-.68.29,0.907,0.907,0,0,0-.28.67l-0.52,4.87a8.665,8.665,0,0,0-1.7.55c-0.53.23-1.08,0.5-1.63,0.8l-3.78-3.08a0.882,0.882,0,0,0-.65-0.25,0.949,0.949,0,0,0-.7.32l-2.95,2.95a0.884,0.884,0,0,0-.06,1.34l3.07,3.79c-0.3.55-.56,1.1-0.8,1.63a9.366,9.366,0,0,0-.54,1.7l-4.88.51a0.991,0.991,0,0,0-.96.97v4.23a0.992,0.992,0,0,0,.96.96l4.88,0.51a9.123,9.123,0,0,0,.54,1.7c0.24,0.54.5,1.08,0.8,1.64l-3.07,3.78a0.9,0.9,0,0,0,.06,1.35l2.95,2.95a0.988,0.988,0,0,0,.7.32,0.89,0.89,0,0,0,.65-0.26l3.78-3.08c0.55,0.3,1.1.57,1.63,0.8a8.665,8.665,0,0,0,1.7.55l0.52,4.87a0.956,0.956,0,0,0,.96.96h4.23a0.907,0.907,0,0,0,.67-0.28,0.916,0.916,0,0,0,.29-0.68l0.51-4.87a8.454,8.454,0,0,0,1.7-.55c0.54-.23,1.08-0.5,1.64-0.8l3.78,3.08a0.883,0.883,0,0,0,.64.26,1.009,1.009,0,0,0,.71-0.32l2.95-2.95a0.9,0.9,0,0,0,.06-1.35l-3.08-3.78c0.3-.56.57-1.1,0.81-1.64a9.123,9.123,0,0,0,.54-1.7l4.87-.51a0.955,0.955,0,0,0,.68-0.29,0.933,0.933,0,0,0,.29-0.67v-4.23Zm-19.18-29.95a31.236,31.236,0,0,1,12.47,2.53,31.989,31.989,0,0,1,17.06,17.06,32.082,32.082,0,0,1,1.38,21,32.127,32.127,0,0,1-22.38,22.38,32.173,32.173,0,0,1-17.05,0,32.623,32.623,0,0,1-7.67-3.24,32.154,32.154,0,0,1-14.71-19.14,31.942,31.942,0,0,1,0-17.06,32.549,32.549,0,0,1,3.24-7.66,31.961,31.961,0,0,1,19.14-14.71A31.238,31.238,0,0,1,2915.97,2551.22Z" transform="translate(-2883.91 -2551.22)"/>
</svg>
