<svg xmlns="http://www.w3.org/2000/svg" width="66.15" height="66.16" viewBox="0 0 66.15 66.16">
  <metadata><?xpacket begin="﻿" id="W5M0MpCehiHzreSzNTczkc9d"?>
<x:xmpmeta xmlns:x="adobe:ns:meta/" x:xmptk="Adobe XMP Core 5.6-c142 79.160924, 2017/07/13-01:06:39        ">
   <rdf:RDF xmlns:rdf="http://www.w3.org/1999/02/22-rdf-syntax-ns#">
      <rdf:Description rdf:about=""/>
   </rdf:RDF>
</x:xmpmeta>
                                                                                                    
                                                                                                    
                                                                                                    
                                                                                                    
                                                                                                    
                                                                                                    
                                                                                                    
                                                                                                    
                                                                                                    
                                                                                                    
                                                                                                    
                                                                                                    
                                                                                                    
                                                                                                    
                                                                                                    
                                                                                                    
                                                                                                    
                                                                                                    
                                                                                                    
                                                                                                    
                           
<?xpacket end="w"?></metadata>
<defs>
    <style>
      .cls-1 {
        fill: #5d606b;
        fill-rule: evenodd;
      }
    </style>
  </defs>
  <path id="shuffle" class="cls-1" d="M1848.85,2583.28a33.075,33.075,0,1,0-33.07,33.08A33.071,33.071,0,0,0,1848.85,2583.28Zm-26.2,17.86v-2.6a15.306,15.306,0,0,1-12.05-6.93,15.281,15.281,0,0,1-12.81,6.97,2.48,2.48,0,1,1,0-4.96,10.335,10.335,0,0,0,0-20.67,2.485,2.485,0,1,1,0-4.97,15.29,15.29,0,0,1,12.81,6.98,15.3,15.3,0,0,1,12.05-6.94v-2.6a1.19,1.19,0,0,1,1.79-1.03l8.73,5.04a1.193,1.193,0,0,1,0,2.07l-8.73,5.04a1.19,1.19,0,0,1-1.79-1.03v-2.52a10.322,10.322,0,0,0,0,20.59v-2.52a1.19,1.19,0,0,1,1.79-1.03l8.73,5.04a1.184,1.184,0,0,1,0,2.06l-8.73,5.05A1.2,1.2,0,0,1,1822.65,2601.14Z" transform="translate(-1782.69 -2550.22)"/>
</svg>
