<svg xmlns="http://www.w3.org/2000/svg" width="64.12" height="64.12" viewBox="0 0 64.12 64.12">
  <metadata><?xpacket begin="﻿" id="W5M0MpCehiHzreSzNTczkc9d"?>
<x:xmpmeta xmlns:x="adobe:ns:meta/" x:xmptk="Adobe XMP Core 5.6-c142 79.160924, 2017/07/13-01:06:39        ">
   <rdf:RDF xmlns:rdf="http://www.w3.org/1999/02/22-rdf-syntax-ns#">
      <rdf:Description rdf:about=""/>
   </rdf:RDF>
</x:xmpmeta>
                                                                                                    
                                                                                                    
                                                                                                    
                                                                                                    
                                                                                                    
                                                                                                    
                                                                                                    
                                                                                                    
                                                                                                    
                                                                                                    
                                                                                                    
                                                                                                    
                                                                                                    
                                                                                                    
                                                                                                    
                                                                                                    
                                                                                                    
                                                                                                    
                                                                                                    
                                                                                                    
                           
<?xpacket end="w"?></metadata>
<defs>
    <style>
      .cls-1 {
        fill: #5d606b;
        fill-rule: evenodd;
      }
    </style>
  </defs>
  <path id="speaker" class="cls-1" d="M2732.78,2551.22a32.06,32.06,0,1,0,32.06,32.06A32.094,32.094,0,0,0,2732.78,2551.22Zm7.67,47.65a2.56,2.56,0,0,1-2.56,2.58,2.5,2.5,0,0,1-1.3-.36,1.431,1.431,0,0,1-.15-0.11l-10.93-10.25a0.9,0.9,0,0,0-.4-0.09h-6.87a2.569,2.569,0,0,1-2.56-2.58v-10.63a2.576,2.576,0,0,1,2.56-2.58h6.88a0.891,0.891,0,0,0,.39-0.09l10.93-10.25c0.05-.04.1-0.07,0.15-0.11a2.566,2.566,0,0,1,3.86,2.23v32.24Zm3.06-8.47a0.818,0.818,0,0,1-.58.24,0.858,0.858,0,0,1-.59-0.24,0.845,0.845,0,0,1,0-1.18,9.2,9.2,0,0,0,0-12.95,0.845,0.845,0,0,1,0-1.18,0.833,0.833,0,0,1,1.17,0A10.9,10.9,0,0,1,2743.51,2590.4Z" transform="translate(-2700.72 -2551.22)"/>
</svg>
