<svg xmlns="http://www.w3.org/2000/svg" viewBox="0 0 99.32 99.3"><defs><style>.cls-1{fill:#63d7f8;}</style></defs><title>channel-hover</title><g id="Layer_2" data-name="Layer 2"><g id="Capa_1" data-name="Capa 1"><path class="cls-1" d="M99.32,51.39c-.51,1.08-.75,2.26-1.36,3.3a10.36,10.36,0,0,1-7.76,4.88,15.16,15.16,0,0,1-3.35-.32,11.12,11.12,0,0,1-5.72-4L80,52.93c-.06-.25-.11-.5-.18-.75A10,10,0,0,1,86.9,40a11.38,11.38,0,0,1,5.62.13l2.34,1.14a12.3,12.3,0,0,1,3.51,4.14c.42.86.51,1.81.95,2.65Z"/><path class="cls-1" d="M54.71,97.94A16.87,16.87,0,0,1,51,99.3h-3.1s-.06-.14-.1-.15a10.88,10.88,0,0,1-6.5-4.31L40.17,92.5c-.05-.25-.09-.5-.15-.75a10,10,0,0,1,7-12,11,11,0,0,1,5.91.14l2.31,1.17c.57.52,1.17,1,1.69,1.57a10,10,0,0,1,2.63,7.5A10.33,10.33,0,0,1,54.71,97.94Z"/><path class="cls-1" d="M39.78,75a16.51,16.51,0,0,0-4.36,3.33c-2.68,2.66-5.36,5.32-8,8-.48.48-.71.48-1.18,0-1.8-1.84-3.65-3.63-5.49-5.44l-2-2c-1.76-1.79-3.52-3.59-5.31-5.35-.46-.45-.43-.68,0-1.12,3.13-3.12,6.25-6.24,9.33-9.42a13.88,13.88,0,0,0,2.82-4.22,15.88,15.88,0,0,0,1.9-5.83,18.38,18.38,0,0,0-1.86-11.85,8.47,8.47,0,0,0-1.36-2.32C22.48,36,20,33.9,17.66,31.61a19.66,19.66,0,0,0-2.14-2.14c-.71-.73-1.41-1.49-2.15-2.2-.34-.33-.41-.53,0-.91Q19.9,19.85,26.4,13.3c.34-.33.52-.33.84,0,.71.74,1.47,1.44,2.21,2.15l0,0a21.41,21.41,0,0,0,2.13,2.13c.6.62,1.17,1.26,1.8,1.85,1.67,1.58,3.1,3.42,5,4.74a8.72,8.72,0,0,0,2.51,1.53,18.77,18.77,0,0,0,12,1.7,17.15,17.15,0,0,0,6-2.17,20,20,0,0,0,5-3.81c2.67-2.65,5.34-5.31,8-8,.46-.47.71-.52,1.19,0,1.78,1.82,3.6,3.58,5.41,5.37a14.82,14.82,0,0,0,2,1.93c1.76,1.79,3.51,3.61,5.31,5.37.51.5.59.77,0,1.32-2.77,2.71-5.49,5.47-8.24,8.21a18.68,18.68,0,0,0-4.13,5.67,14.26,14.26,0,0,0-1.62,5.41,17.52,17.52,0,0,0,.66,8.59,12.72,12.72,0,0,0,1.41,3.26,9.7,9.7,0,0,0,1.59,2.51,54.78,54.78,0,0,0,6.41,6.78A21.41,21.41,0,0,0,84,70l3.13,2.75C82.37,77.52,77.87,82,73.4,86.51c-.37.37-.55.24-.82,0-.85-.84-1.7-1.66-2.55-2.49a19.66,19.66,0,0,0-2.14-2.14c-1.28-1.3-2.53-2.65-3.86-3.9a14,14,0,0,0-3.49-2.56A9.33,9.33,0,0,0,58,74.1a20.09,20.09,0,0,0-12.21-1.33A17,17,0,0,0,39.78,75Z"/><path class="cls-1" d="M41.58,4.09A10.3,10.3,0,0,1,47.71.19,9.7,9.7,0,0,1,57.35,3.7c.27.32.52.66.78,1L59.2,7a10.3,10.3,0,0,1-.8,7.6,9.9,9.9,0,0,1-11,5l-.66-.14-2.55-1.19a10.22,10.22,0,0,1-4.51-8.55A11,11,0,0,1,41.58,4.09Z"/><path class="cls-1" d="M4.13,41.54a11.27,11.27,0,0,1,5.38-1.83c.64,0,1.29,0,1.92.13a10.31,10.31,0,0,1,6.85,4.37l1.19,2.55c1,4.34,0,8-3.59,10.78a9.52,9.52,0,0,1-8.42,1.72A3.55,3.55,0,0,0,7,59.18L4.47,58a10.9,10.9,0,0,1-4-5.42A9.86,9.86,0,0,1,3.57,42.07C3.77,41.9,3.94,41.72,4.13,41.54Z"/></g></g></svg>