<svg xmlns="http://www.w3.org/2000/svg" xmlns:xlink="http://www.w3.org/1999/xlink" viewBox="0 0 285 285"><defs><style>.cls-1{fill:url(#linear-gradient);}.cls-2{fill:#ddbcbc;}.cls-2,.cls-3{stroke:#fff;stroke-miterlimit:10;stroke-width:3px;}.cls-3{fill:#a86363;}</style><linearGradient id="linear-gradient" x2="285" y2="285" gradientUnits="userSpaceOnUse"><stop offset="0" stop-color="#ff8b0c"/><stop offset="0.1" stop-color="#fd8a15"/><stop offset="0.26" stop-color="#f8862f"/><stop offset="0.47" stop-color="#f08058"/><stop offset="0.71" stop-color="#e57792"/><stop offset="0.98" stop-color="#d76ddb"/><stop offset="0.99" stop-color="#d66cdf"/></linearGradient></defs><title>foour</title><g id="Layer_2" data-name="Layer 2"><g id="Layer_1-2" data-name="Layer 1"><rect class="cls-1" width="285" height="285"/><polygon class="cls-2" points="125.6 18.77 68.59 18.77 40.08 68.14 68.59 117.51 125.6 117.51 154.1 68.14 125.6 18.77"/><polygon class="cls-3" points="211.38 68.52 154.37 68.52 125.87 117.89 154.37 167.26 211.38 167.26 239.89 117.89 211.38 68.52"/><polygon class="cls-2" points="126.36 117.33 69.35 117.33 40.84 166.71 69.35 216.08 126.36 216.08 154.87 166.71 126.36 117.33"/><polygon class="cls-3" points="212.15 167.08 155.14 167.08 126.63 216.46 155.14 265.83 212.15 265.83 240.65 216.46 212.15 167.08"/></g></g></svg>