<svg xmlns="http://www.w3.org/2000/svg" viewBox="0 0 108.72 106.18"><defs><style>.cls-1{fill:#545a6b;}</style></defs><title>album</title><g id="Layer_2" data-name="Layer 2"><g id="Capa_1" data-name="Capa 1"><path class="cls-1" d="M51.91,103.82a52.14,52.14,0,0,0,11.46-1.28,14.65,14.65,0,0,1,11.8-23.36,15.31,15.31,0,0,1,1.91.12V58.82a5.79,5.79,0,0,1,5.76-5.93,6.06,6.06,0,0,1,1,.09c5.45.93,13.46,2.85,19.38,6.63a52.76,52.76,0,0,0,.57-7.7,51.91,51.91,0,1,0-51.91,51.91ZM73.36,51.25A21.45,21.45,0,1,1,51.91,29.79,21.45,21.45,0,0,1,73.36,51.25ZM27.28,9.93,38,29s-6.51,3.32-8.74,9.54L8.61,29.8C15.76,14.3,27.28,9.93,27.28,9.93Z"/><path class="cls-1" d="M89.84,71.73c0,3.54,0,10.29,0,15.62a52,52,0,0,0,8.47-12.14s0-.09-.07-.13C96.85,73.17,94,72,89.84,71.73Z"/><path class="cls-1" d="M52.11,46.08a4.18,4.18,0,1,1-4.17,4.18A4.18,4.18,0,0,1,52.11,46.08Z"/><path class="cls-1" d="M83.48,55.28a3.52,3.52,0,0,0-.64-.05,3.44,3.44,0,0,0-3.43,3.59V82.27a12.17,12.17,0,0,0-4.24-.76A12.34,12.34,0,1,0,86.4,99c.94-2.06,1.08-5.79,1.09-8.06v-1.2c0-7.52,0-20.38,0-20.38,6.24,0,9.86,1.47,11.89,3.58,3.14,3.28,2.37,8.12,1.23,11.46-.42,1.24-.45,1.88-.11,1.88s.7-.34,1.35-1c10.38-11.29,7.51-18.53.95-23.09C97.07,58.09,88.5,56.14,83.48,55.28Z"/></g></g></svg>