<svg xmlns="http://www.w3.org/2000/svg" viewBox="0 0 98.4 78.72"><defs><style>.cls-1{fill:#63d7f8;}</style></defs><title>station-hover</title><g id="Layer_2" data-name="Layer 2"><g id="Capa_1" data-name="Capa 1"><g id="ALBUM"><path class="cls-1" d="M96.76,8.2H91.84V6.56A1.64,1.64,0,0,0,90.2,4.92H85.28V1.64A1.64,1.64,0,0,0,83.64,0H14.76a1.63,1.63,0,0,0-1.64,1.64V4.92H8.2A1.63,1.63,0,0,0,6.56,6.56V8.2H1.64A1.63,1.63,0,0,0,0,9.84v59a1.64,1.64,0,0,0,1.64,1.64H6.56v1.64A1.64,1.64,0,0,0,8.2,73.8h4.92v3.28a1.64,1.64,0,0,0,1.64,1.64H83.64a1.65,1.65,0,0,0,1.64-1.64V73.8H90.2a1.65,1.65,0,0,0,1.64-1.64V70.52h4.92a1.65,1.65,0,0,0,1.64-1.64v-59A1.64,1.64,0,0,0,96.76,8.2ZM13.12,70.52H9.84V8.2h3.28ZM73.8,24.6V49.2a9.88,9.88,0,1,1-3.28-7.31V26.64L44.28,32.48V55.76A9.88,9.88,0,1,1,41,48.45V21.32a1.64,1.64,0,0,1,1.28-1.6L71.8,13.16a1.66,1.66,0,0,1,1.38.32,1.64,1.64,0,0,1,.62,1.28ZM88.56,9.84V70.52H85.28V8.2h3.28Z"/></g></g></g></svg>