<svg xmlns="http://www.w3.org/2000/svg" viewBox="0 0 124.76 99.29"><defs><style>.cls-1{fill:#545a6b;}</style></defs><title>home</title><g id="Layer_2" data-name="Layer 2"><g id="Capa_1" data-name="Capa 1"><path class="cls-1" d="M62.38,20,17.89,56.72a1.67,1.67,0,0,1,0,.24.79.79,0,0,0,0,.23V94.33a5,5,0,0,0,5,5H52.47V69.57H72.29V99.29H102a5.06,5.06,0,0,0,5-5V57.19a1.1,1.1,0,0,0-.08-.47Z"/><path class="cls-1" d="M123.9,48.37,107,34.28V2.71a2.42,2.42,0,0,0-.69-1.78,2.44,2.44,0,0,0-1.78-.7H89.62a2.4,2.4,0,0,0-2.48,2.48V17.8L68.26,2A9.61,9.61,0,0,0,56.5,2L.86,48.37A2.21,2.21,0,0,0,0,50a2.53,2.53,0,0,0,.54,1.82l4.8,5.73A2.67,2.67,0,0,0,7,58.43a2.91,2.91,0,0,0,1.86-.54L62.38,13.23l53.55,44.65a2.38,2.38,0,0,0,1.63.54h.23a2.57,2.57,0,0,0,1.62-.85l4.8-5.72a2.55,2.55,0,0,0,.54-1.82A2.24,2.24,0,0,0,123.9,48.37Z"/></g></g></svg>